<svg width="49" height="29" viewBox="0 0 49 29" fill="none" xmlns="http://www.w3.org/2000/svg">
<g clip-path="url(#clip0_1_346)">
<path fill-rule="evenodd" clip-rule="evenodd" d="M19.4084 27.8527H16.2556V1.06204H21.1345L24.3984 23.162C23.9108 17.9095 23.2727 9.42882 23.2727 4.96403V1.06204H26.4246V27.8527H21.9589L18.9567 6.38892C19.2202 11.1916 19.4075 16.9326 19.4075 20.1598V27.8518M28.226 27.8527V1.06204H32.6908C35.6554 1.06204 37.4935 2.67516 37.4935 6.42751V10.3671C37.4935 12.8066 36.7424 14.0442 35.6921 14.6823C36.7424 15.358 37.4935 16.558 37.4935 18.6219V22.5239C37.4935 26.201 35.5425 27.8527 32.6908 27.8527H28.226ZM31.8278 4.43887V13.2941H32.2776C33.5538 13.2941 33.8917 12.8066 33.8917 11.3431V6.24022C33.8917 5.00167 33.5162 4.43887 32.4282 4.43887H31.8278ZM31.8278 16.2211V24.4749H32.4282C33.5538 24.4749 33.8917 23.8378 33.8917 22.5616V18.0215C33.8917 16.7086 33.4776 16.2211 32.2776 16.2211H31.8278ZM44.2434 22.8242H41.9921L41.691 27.8527H38.0525L40.6783 1.06204H45.7812L48.3336 27.8527H44.5436L44.2434 22.8242ZM42.1418 19.7852H44.0561L43.7549 14.8696C43.6429 12.9186 43.3427 6.72773 43.1177 3.38761H42.9672L42.442 14.8696L42.1418 19.7852ZM10.0111 0.375H3.41645C2.64332 0.375499 1.902 0.682845 1.35531 1.22953C0.808627 1.77622 0.501281 2.51754 0.500782 3.29067L0.500782 25.6222C0.50103 26.3957 0.808176 27.1376 1.35481 27.6849C1.90144 28.2323 2.6429 28.5404 3.41645 28.5416H10.0064C10.7806 28.5406 11.5229 28.2328 12.0706 27.6856C12.6183 27.1384 12.9269 26.3964 12.9286 25.6222V3.29067C12.9274 2.51744 12.6195 1.77627 12.0726 1.22969C11.5257 0.683112 10.7843 0.375747 10.0111 0.375Z" fill="#FFFFFE"/>
<path fill-rule="evenodd" clip-rule="evenodd" d="M8.37535 5.53813L8.38194 5.63413C8.58334 5.75083 8.68499 5.84683 8.88827 5.97671C9.42567 6.31552 10.0882 6.91785 10.0045 8.9912C10.1551 9.44295 10.2219 10.3314 10.3621 10.6166C10.6416 11.1718 10.8289 11.5332 10.9108 12.0574C10.9108 12.0574 10.9908 12.8734 11.0962 12.9327C11.6524 13.0588 11.4915 13.1134 11.5734 13.2085C11.6599 13.3205 11.9809 13.3148 11.9809 13.6141C12.0919 13.7628 12.1748 13.9181 12.2369 14.079V3.29068C12.2364 2.70025 12.0018 2.1341 11.5846 1.71634C11.1673 1.29858 10.6015 1.06329 10.0111 1.06204H7.88031C8.22288 1.18439 8.41676 1.32745 8.52876 1.5552C8.80357 1.57873 9.13109 2.19518 8.62099 3.10715C8.84686 3.25774 8.67087 3.48173 8.50899 3.74243C8.46193 3.82619 8.41017 3.97489 8.25865 3.96454C8.06571 4.37205 7.83137 4.76639 7.65537 4.79086C7.60173 4.85674 7.56314 5.0318 7.64314 5.11462C7.90289 5.23038 8.21912 5.39037 8.37535 5.53813ZM12.2369 15.5406C12.0897 15.9106 11.8346 16.2279 11.5048 16.4511C11.175 16.6743 10.7857 16.7932 10.3875 16.7924C10.1267 16.7925 9.86833 16.7412 9.62729 16.6415C9.38625 16.5417 9.16723 16.3955 8.98273 16.2111C8.79823 16.0266 8.65187 15.8077 8.55201 15.5667C8.45216 15.3257 8.40076 15.0674 8.40076 14.8065C8.40076 13.8701 9.0445 13.0842 9.91883 12.8744C9.69013 12.3003 9.20638 11.3714 9.06239 11.0674C8.92686 10.7643 8.59934 8.87449 8.52876 8.50086C8.51276 8.41898 7.67137 8.98931 7.66949 9.02414C7.62055 9.07119 7.03892 10.5921 7.01445 10.674C7.00222 10.7257 7.00128 10.9281 7.00128 10.9281C7.00128 10.9281 7.28738 10.9638 7.45208 11.4636C7.6149 11.9624 8.11089 13.7816 8.11089 13.7816C8.11089 13.7816 7.97724 13.9209 7.9716 13.9134C8.59934 16.014 8.38005 16.9185 8.66146 17.5349C9.01533 18.4027 9.11132 18.2888 9.41437 19.0191C9.63272 19.5509 9.87554 21.643 9.95647 21.7353C10.2953 22.1654 10.4779 22.5004 10.4779 22.7423C10.4779 22.987 10.1908 23.707 10.2953 24.1267C10.3593 24.3742 10.3922 24.9267 10.507 25.0321C10.507 25.0321 10.6125 25.2401 10.5607 25.3333C10.5456 25.3643 10.5155 25.4123 10.5296 25.4509C10.716 26.1097 11.3202 27.2353 10.3423 27.8245H10.363C10.8875 27.7428 11.3651 27.4756 11.709 27.0714C12.0529 26.6672 12.2403 26.1529 12.2369 25.6222V15.5406Z" fill="#B52532"/>
<path fill-rule="evenodd" clip-rule="evenodd" d="M9.72778 25.194C9.37014 24.874 9.60919 24.7394 9.59413 24.6133C9.35885 23.6373 8.58334 23.0472 8.98427 22.7253C8.88545 22.4035 8.68405 21.9988 8.69158 21.9997C7.48409 21.3061 6.45541 20.1795 6.2813 20.0139C6.06954 19.7843 5.70814 19.5527 5.64132 19.3664C5.35051 19.1 3.9275 17.0813 3.59621 16.3378L3.01835 16.2559C2.75483 15.183 1.87768 14.2823 1.85603 13.2066C1.8485 12.7991 2.0405 11.9276 2.11202 11.7544C2.18261 11.5775 2.5186 11.2885 2.5186 11.2885V11.0005C1.25841 11.0363 1.62075 10.9074 1.40428 10.417C1.25182 10.0782 1.36099 10.0029 1.41558 9.76764C1.58498 9.07401 2.14685 8.00299 2.37837 7.51642C2.4499 7.27078 2.69271 6.6788 2.69271 6.6788C3.63198 4.76639 3.98302 4.90662 5.09828 4.79839L5.15287 4.71933C6.27095 4.67039 6.08742 4.58663 6.2446 3.50996C6.08272 3.5796 6.03378 3.17209 6.03378 3.17209C5.94531 2.56034 6.20319 2.6761 6.32553 2.66387C6.35283 1.65684 6.45541 1.33873 7.18198 1.0611H3.41739C3.12444 1.0611 2.83436 1.11883 2.56374 1.23099C2.29311 1.34316 2.04724 1.50755 1.84018 1.71479C1.63312 1.92202 1.46893 2.16803 1.357 2.43875C1.24506 2.70948 1.18757 2.9996 1.18782 3.29255V25.6231C1.18782 26.8551 2.18543 27.8536 3.41833 27.8536H10.0111C9.25626 27.4452 9.70236 26.6678 9.72778 25.194Z" fill="#253B73"/>
</g>
<defs>
<clipPath id="clip0_1_346">
<rect width="47.9984" height="28.2344" fill="white" transform="translate(0.500782 0.375)"/>
</clipPath>
</defs>
</svg>
